<?xml version="1.0" encoding="utf-8"?>
<!-- Generator: Adobe Illustrator 24.1.1, SVG Export Plug-In . SVG Version: 6.00 Build 0)  -->
<svg version="1.1" xmlns="http://www.w3.org/2000/svg" xmlns:xlink="http://www.w3.org/1999/xlink" x="0px" y="0px" width="245.8px"
	 height="128.9px" viewBox="0 0 245.8 128.9" enable-background="new 0 0 245.8 128.9" xml:space="preserve">
<g id="Background">
</g>
<g id="Foreground">
	<g>
		<g>
			<polygon fill="#213A7B" points="68,0 120.1,0 150.9,35.4 96.8,35.4 90.6,28.8 37.7,28.8 			"/>
			<polygon fill="#213A7B" points="55.3,128.9 30.4,99.8 84,99.8 91.2,93 145,93 107.4,128.9 			"/>
			<polygon fill="#213A7B" points="0,64.4 31,35.2 83.9,35.2 51.9,64.4 77.6,93.2 24.8,93.2 			"/>
			<path fill="#213A7B" d="M222.7,67.4l-20.9,0c-2.2-0.1-3.9-1.9-3.9-4.1c0-0.4,0.1-1,0.2-1.4l1.8-5.2c2.6-7.3,9.9-11.6,17.9-11.7
				l28.1,0l-2.2,6.4h-20c-5.2,0-9.7,1.9-11.1,5.9l-0.1,0.2l-0.3,0.7c-0.3,1-0.9,3-0.9,3l3.5,0l21.5,0c2.2,0.1,3.9,1.9,3.9,4.1
				c0,0.4-0.1,1-0.2,1.4l-2.1,6.1c-2.8,6.3-9.6,10.8-17.6,10.8l-29.3,0l2.4-6.8l21.7,0c5.2,0,8.7-1.9,10-5.4l0.4-1.2l0.2-0.6
				c0.3-1,0.5-2.4,0.5-2.4L222.7,67.4z"/>
			<path fill="#213A7B" d="M132.8,56.9c2.6-7.3,9.9-11.6,17.9-11.7l28.2,0l-2.2,6.4h-20.1c-5.2,0-9.7,1.9-11.1,5.9l-5.3,16.1
				c-0.1,0.2-0.1,0.5-0.1,0.8c0,1.4,1.1,2.6,2.5,2.6l4.7,0c5.2,0,8.7-1.9,10-5.4l1.5-4.2h-7.9l2.1-6.1l21.1,0l-4,11.6
				c-2.8,6.3-9.6,10.8-17.6,10.8l-19.9,0l-0.5,0c-3.4,0-6.1-2.7-6.1-6.1c0-0.7,0.1-1.5,0.4-2.2L132.8,56.9z"/>
			<path fill="#213A7B" d="M83.8,83.9h-0.6c-2.4-0.1-4.4-2-4.4-4.2c0-0.4,0.1-1.1,0.2-1.4l0.4-1.2l11-31.9h42.1l-2.2,6.4h-26.8
				c-1.7,0-2.7,1.2-3,2c-0.2,0.5-2.5,7.8-2.5,7.8h22.1l-2.1,6.1H95.9c0,0-2.3,6.7-2.4,7.1c-0.3,1-0.2,2.4,2,2.4h27.4l-2.3,6.8
				L83.8,83.9z"/>
			<path fill="#213A7B" d="M178.6,83.9h-0.3h-0.6c-2.4-0.1-4.4-2-4.4-4.2c0-0.4,0.1-1.1,0.2-1.4L174,77l0.4-1.1L185,45.2h13.7
				l-13.3,38.7L178.6,83.9z"/>
		</g>
	</g>
</g>
</svg>
